PathFileType	4	(X/Y/Z)	./resultDataOpenSim/trcMotMarkerGrf/sub06/qtm-13-08.trc
DataRate	CameraRate	NumFrames	NumMarkers	Units	OrigDataRate	OrigDataStartFrame	OrigNumFrames
250.000000	250.000000	11	24	m	250.000000	197	523
Frame#	Time	L.Toe.Tip			R.Toe.Tip			L.Ankle.Lat			R.Ankle.Lat			L.Ankle.Med			R.Ankle.Med			L.Heel			R.Heel			L.Knee.Lat			R.Knee.Lat			L.Knee.Med			R.Knee.Med			L.Thigh.Upper			R.Thigh.Upper			L.ASIS			R.ASIS			V.Sacral			L.Acromium			R.Acromium			C7			L.Elbow			R.Elbow			L.Wrist.Lat			R.Wrist.Lat
		X1	Y1	Z1	X2	Y2	Z2	X3	Y3	Z3	X4	Y4	Z4	X5	Y5	Z5	X6	Y6	Z6	X7	Y7	Z7	X8	Y8	Z8	X9	Y9	Z9	X10	Y10	Z10	X11	Y11	Z11	X12	Y12	Z12	X13	Y13	Z13	X14	Y14	Z14	X15	Y15	Z15	X16	Y16	Z16	X17	Y17	Z17	X18	Y18	Z18	X19	Y19	Z19	X20	Y20	Z20	X21	Y21	Z21	X22	Y22	Z22	X23	Y23	Z23	X24	Y24	Z24

197	0.784	0.11534539	-0.015230239	-0.02406644	-0.62754756	0.067641822	0.094349367	-0.0049856329	0.017865422	-0.056705519	-0.62121708	0.20732144	0.12614883	-0.014346494	0.031123975	0.029629696	-0.57387983	0.18982099	0.049862358	-0.084687479	-0.0094936964	-0.020878185	-0.63288529	0.25232937	0.058271738	0.059037342	0.39196376	-0.070938195	-0.26818998	0.35065768	0.19586945	0.023381454	0.39312932	0.045590963	-0.25444133	0.32314481	0.065727973	-0.10980028	0.74143359	-0.15134307	-0.20506762	0.7030314	0.18395798	-0.060415746	0.7822315	-0.084996647	-0.12227827	0.76379462	0.15539869	-0.27247915	0.84177759	-0.0027660664	-0.16553975	1.2414559	-0.17994383	-0.18539844	1.2463735	0.18475995	-0.24859857	1.2834407	-0.0044815231	-0.29394032	0.96023519	-0.21142868	-0.23754651	0.93057696	0.27683148	-0.26529047	0.72541652	-0.26686927	-0.0094562706	0.82580418	0.27564022
198	0.788	0.11530781	-0.015291507	-0.024192289	-0.61374048	0.07179679	0.096217582	-0.0049179756	0.017539869	-0.05690052	-0.60779226	0.21184185	0.12626528	-0.013941306	0.030897512	0.029556364	-0.56088562	0.19391221	0.050009022	-0.084712017	-0.0094993436	-0.020581503	-0.61980675	0.25568423	0.058041506	0.062204988	0.39033078	-0.072055906	-0.25404343	0.34924006	0.19763284	0.029152974	0.39183062	0.044600438	-0.24114897	0.3231155	0.066935216	-0.10494428	0.74088536	-0.15206925	-0.19913267	0.70266654	0.18319913	-0.054708875	0.78231217	-0.086169582	-0.11564787	0.76342536	0.15459636	-0.26660237	0.84209375	-0.0034856739	-0.15722191	1.2416967	-0.17989959	-0.17759005	1.2464991	0.18477094	-0.24070043	1.2841933	-0.0043522242	-0.28431679	0.95971539	-0.21178985	-0.23229952	0.93072734	0.27580412	-0.25452334	0.72503473	-0.26721444	-0.0058186142	0.82292323	0.27600612
199	0.792	0.11527062	-0.015322833	-0.024379532	-0.59948827	0.075669224	0.09793199	-0.0048529723	0.017233891	-0.057105881	-0.59388454	0.21609747	0.1264112	-0.01353878	0.03073358	0.029432675	-0.54743815	0.19777408	0.050172871	-0.084731054	-0.0094978587	-0.020277864	-0.60632931	0.2590406	0.058007272	0.065011306	0.38867153	-0.073236272	-0.23970514	0.34797128	0.19931654	0.034510361	0.39034801	0.043718368	-0.22781277	0.3233208	0.068259798	-0.10008723	0.74062988	-0.152805	-0.19393785	0.70252177	0.18214924	-0.049091847	0.78249501	-0.087369163	-0.10913835	0.76335884	0.15386416	-0.26097102	0.84265914	-0.0041095962	-0.14892967	1.2420778	-0.17973887	-0.16987431	1.2467372	0.18475513	-0.23294299	1.2849804	-0.0042169505	-0.2746786	0.95936073	-0.21209379	-0.22705979	0.93109184	0.27476746	-0.24356843	0.72482801	-0.2675086	-0.0023023897	0.82006979	0.27633438
200	0.796	0.11523244	-0.015325059	-0.024618361	-0.58491283	0.079203517	0.099499445	-0.0047935506	0.016938016	-0.057312201	-0.57957413	0.21994747	0.12667103	-0.013218444	0.030628801	0.029297762	-0.53352607	0.20132025	0.050358105	-0.084757913	-0.0094889768	-0.020087884	-0.59230976	0.26240782	0.058251908	0.067513796	0.38701305	-0.074394295	-0.2252171	0.34691128	0.20090025	0.039389916	0.38864528	0.042931851	-0.21442035	0.3236823	0.069693465	-0.095179064	0.74074556	-0.15354743	-0.18923119	0.70263068	0.18099331	-0.043523224	0.78279913	-0.088586816	-0.10279652	0.76366068	0.15324374	-0.25551838	0.84344095	-0.0046264905	-0.14069489	1.2426152	-0.17949398	-0.16227582	1.2470816	0.18472743	-0.2253391	1.2858168	-0.0041009293	-0.26504568	0.95916994	-0.21236005	-0.22180062	0.9316663	0.27370786	-0.23239533	0.72480389	-0.2677621	0.0010773412	0.8172631	0.27663841
201	0.8	0.11519186	-0.015321683	-0.024847414	-0.57000173	0.082443894	0.10098339	-0.0047505967	0.01665712	-0.057519645	-0.56496765	0.22332899	0.12707637	-0.013016023	0.030569216	0.02917766	-0.51920801	0.20455886	0.05060716	-0.084795845	-0.0094735246	-0.020033687	-0.57779125	0.26569252	0.058746372	0.069782481	0.38537656	-0.075417731	-0.21059781	0.34612643	0.20236004	0.04359512	0.38661497	0.042139246	-0.20096347	0.32419094	0.07108334	-0.090154432	0.7412621	-0.15428529	-0.18482268	0.70299632	0.17983413	-0.037960772	0.78323202	-0.089804256	-0.09662311	0.76433491	0.15273478	-0.25019178	0.84441424	-0.0050088121	-0.13255621	1.2433465	-0.17920813	-0.15481988	1.2475415	0.18470181	-0.21789331	1.2867188	-0.004018144	-0.25542691	0.95913344	-0.21260015	-0.21655067	0.93244308	0.27261392	-0.2209816	0.72496856	-0.26798809	0.0043203321	0.81452322	0.27692304
202	0.804	0.11515082	-0.015328268	-0.025021091	-0.55474953	0.085444607	0.10242792	-0.0047231096	0.016405853	-0.057717301	-0.55014731	0.2262709	0.12760361	-0.012904645	0.030540749	0.029080457	-0.50459762	0.20753565	0.050989566	-0.084839376	-0.0094511072	-0.020047132	-0.56296994	0.26880054	0.059418237	0.071895353	0.38380415	-0.076207247	-0.19585357	0.34566789	0.20367673	0.04706473	0.38431068	0.04134561	-0.18741474	0.32486754	0.072223925	-0.084964893	0.74213758	-0.15498733	-0.18058494	0.70360117	0.17870864	-0.032388639	0.78379683	-0.090978886	-0.090582536	0.76534457	0.15231258	-0.24494182	0.84555548	-0.0052171857	-0.12451685	1.2442889	-0.17890468	-0.14752316	1.2481325	0.18469297	-0.21059431	1.2877005	-0.0039691497	-0.24582537	0.9592417	-0.21281161	-0.21133322	0.93340794	0.27147611	-0.20934995	0.72532085	-0.26819175	0.0074268663	0.81186165	0.27719
203	0.808	0.11511126	-0.015341637	-0.025137847	-0.53922724	0.088206996	0.10382734	-0.0047008786	0.016194961	-0.057879885	-0.53513648	0.2288737	0.12821672	-0.012842783	0.030535535	0.029007873	-0.48978494	0.21028411	0.05152081	-0.084886628	-0.0094211061	-0.020065753	-0.54806759	0.27167106	0.060194256	0.073926243	0.38237342	-0.076730963	-0.18101374	0.34558019	0.2048454	0.049902225	0.38201501	0.040697381	-0.17373056	0.32570033	0.073012292	-0.079598165	0.74328165	-0.15561474	-0.17641702	0.70442081	0.17762999	-0.026812886	0.78449274	-0.092059934	-0.084645691	0.76664959	0.1519709	-0.23971412	0.84683981	-0.0052132579	-0.11655645	1.2454283	-0.17858609	-0.14038833	1.2488631	0.18471378	-0.20341328	1.2887763	-0.0039481353	-0.23624393	0.95949114	-0.21299432	-0.20614535	0.9345425	0.270293	-0.19754372	0.72585273	-0.26837915	0.010389701	0.80928406	0.27745056
204	0.812	0.11506891	-0.015355096	-0.025210462	-0.52352919	0.090693814	0.10515066	-0.0046787206	0.016030058	-0.05798677	-0.51990721	0.23125981	0.12890078	-0.012809414	0.030549351	0.028956843	-0.47480552	0.2128218	0.052150768	-0.084941899	-0.0093850925	-0.020070779	-0.53322891	0.2742657	0.06101189	0.075933183	0.38118374	-0.077028301	-0.16612951	0.34589989	0.20587266	0.052137404	0.38007791	0.04031335	-0.1598821	0.32664364	0.073482566	-0.074072641	0.74460063	-0.15614536	-0.17222041	0.70543151	0.17661219	-0.021245301	0.78531228	-0.093018438	-0.078780918	0.76820866	0.15171351	-0.23444532	0.84824336	-0.0049920529	-0.10866482	1.2467408	-0.17825192	-0.13341427	1.2497321	0.18477383	-0.19631213	1.2899615	-0.0039458467	-0.2266866	0.95988256	-0.21316107	-0.20098156	0.93582918	0.26907365	-0.1855928	0.72655913	-0.2685549	0.013203383	0.80679591	0.277721
205	0.816	0.11501728	-0.015367091	-0.025248272	-0.50767164	0.092898027	0.10638579	-0.0046605126	0.015916936	-0.058040119	-0.50444325	0.23351228	0.12965454	-0.012807924	0.030581776	0.028919371	-0.4596798	0.21515959	0.052823368	-0.0850075	-0.0093454233	-0.020070159	-0.51849622	0.27655303	0.061817007	0.077933448	0.3803014	-0.077163534	-0.15124917	0.34663834	0.20676746	0.053730521	0.37876705	0.040200637	-0.1458802	0.32767369	0.07373305	-0.06842212	0.74601611	-0.15657806	-0.16789011	0.70661204	0.17567715	-0.015700452	0.78625488	-0.093852008	-0.072925069	0.76995944	0.15151203	-0.22906815	0.84974785	-0.0046326985	-0.10085016	1.2482122	-0.17789936	-0.1266001	1.2507356	0.18487786	-0.18925458	1.2912742	-0.0039460496	-0.21716382	0.96041671	-0.21331529	-0.19585782	0.93725077	0.26782939	-0.17350292	0.72744601	-0.26871778	0.015869945	0.80440343	0.27800863
206	0.82	0.1149559	-0.015379696	-0.025260523	-0.49158506	0.094861287	0.10755119	-0.0046495164	0.015863092	-0.058059669	-0.48881196	0.23562949	0.13046336	-0.012851325	0.030638099	0.028885376	-0.44444119	0.21730486	0.053511535	-0.085079174	-0.0093020274	-0.020077791	-0.50383856	0.27851211	0.062578794	0.079902092	0.37970971	-0.077178379	-0.13641034	0.34777696	0.20753601	0.054722842	0.37820329	0.040295	-0.13174283	0.32881011	0.073874926	-0.062681703	0.74746445	-0.15692511	-0.16331154	0.70794215	0.17485431	-0.010192382	0.78733827	-0.094568205	-0.067019938	0.7718309	0.15131899	-0.22353693	0.85134174	-0.004310403	-0.093120802	1.2498399	-0.17752183	-0.11993617	1.2518719	0.18502531	-0.18220886	1.2927289	-0.0039298845	-0.20768753	0.96108592	-0.21344573	-0.19080744	0.93879033	0.26656748	-0.16127021	0.72852259	-0.26886547	0.018388541	0.80211572	0.27830997
207	0.824	0.11489157	-0.015393901	-0.025257938	-0.4751867	0.096626834	0.10867677	-0.0046423718	0.015870945	-0.058064006	-0.47314076	0.23754091	0.13129546	-0.012941587	0.030722153	0.028846539	-0.42911887	0.21927001	0.054214252	-0.085148244	-0.0092514446	-0.020101438	-0.48920424	0.28015299	0.063327172	0.081815388	0.37932554	-0.07707703	-0.12164037	0.34927947	0.20818485	0.055202752	0.3783282	0.040491908	-0.11748744	0.33009962	0.073998655	-0.056883078	0.74890654	-0.1572095	-0.15836175	0.70940145	0.17417709	-0.0047241945	0.78858215	-0.095170822	-0.061072905	0.7737822	0.15112509	-0.21786969	0.85301549	-0.0041917394	-0.085457173	1.2516204	-0.17712406	-0.11339772	1.2531415	0.18521403	-0.17514478	1.2943264	-0.0038856839	-0.19823274	0.96186607	-0.21360043	-0.18584915	0.94043017	0.26529534	-0.14890316	0.72978737	-0.26900187	0.020751817	0.79994448	0.27861934
